<?xml version="1.0" encoding="iso-8859-1"?>
<!-- Uploaded to: SVG Repo, www.svgrepo.com, Generator: SVG Repo Mixer Tools -->
<svg height="800px" width="800px" version="1.1" id="Layer_1" xmlns="http://www.w3.org/2000/svg" xmlns:xlink="http://www.w3.org/1999/xlink" 
	 viewBox="0 0 512 512" xml:space="preserve">
<g>
	<path style="fill:#777777;" d="M128,503.652c0,4.61-3.736,8.348-8.348,8.348H8.348C3.736,512,0,508.262,0,503.652
		s3.736-8.348,8.348-8.348h111.304C124.264,495.304,128,499.042,128,503.652z"/>
	<path style="fill:#777777;" d="M475.826,119.374v6.122c0,4.61-3.736,8.348-8.348,8.348s-8.348-3.738-8.348-8.348v-6.122
		c0-4.61,3.736-8.348,8.348-8.348S475.826,114.764,475.826,119.374z M348.753,202.017c-4.611,0-8.348,3.738-8.348,8.348v4.452
		c0,4.61,3.736,8.348,8.348,8.348c4.611,0,8.348-3.738,8.348-8.348v-4.452C357.101,205.755,353.365,202.017,348.753,202.017z
		 M348.753,164.174c-4.611,0-8.348,3.738-8.348,8.348v4.452c0,4.61,3.736,8.348,8.348,8.348c4.611,0,8.348-3.738,8.348-8.348v-4.452
		C357.101,167.912,353.365,164.174,348.753,164.174z M230.029,218.713c-4.611,0-8.348,3.738-8.348,8.348v4.452
		c0,4.61,3.736,8.348,8.348,8.348s8.348-3.738,8.348-8.348v-4.452C238.377,222.451,234.641,218.713,230.029,218.713z M230.029,294.4
		c-4.611,0-8.348,3.738-8.348,8.348v4.452c0,4.61,3.736,8.348,8.348,8.348s8.348-3.738,8.348-8.348v-4.452
		C238.377,298.138,234.641,294.4,230.029,294.4z M230.029,256.557c-4.611,0-8.348,3.738-8.348,8.348v4.452
		c0,4.61,3.736,8.348,8.348,8.348s8.348-3.738,8.348-8.348v-4.452C238.377,260.294,234.641,256.557,230.029,256.557z
		 M111.304,346.713c-4.611,0-8.348,3.738-8.348,8.348v4.452c0,4.61,3.736,8.348,8.348,8.348s8.348-3.738,8.348-8.348v-4.452
		C119.652,350.451,115.916,346.713,111.304,346.713z M111.304,384.557c-4.611,0-8.348,3.738-8.348,8.348v4.452
		c0,4.61,3.736,8.348,8.348,8.348s8.348-3.738,8.348-8.348v-4.452C119.652,388.294,115.916,384.557,111.304,384.557z
		 M111.304,308.87c-4.611,0-8.348,3.738-8.348,8.348v4.452c0,4.61,3.736,8.348,8.348,8.348s8.348-3.738,8.348-8.348v-4.452
		C119.652,312.607,115.916,308.87,111.304,308.87z M111.304,271.026c-4.611,0-8.348,3.738-8.348,8.348v4.452
		c0,4.61,3.736,8.348,8.348,8.348s8.348-3.738,8.348-8.348v-4.452C119.652,274.764,115.916,271.026,111.304,271.026z"/>
</g>
<path style="fill:#FF6029;" d="M512,178.087v311.652c0,12.295-9.966,22.261-22.261,22.261H100.174
	c-12.295,0-22.261-9.966-22.261-22.261v-44.522c0-12.295,9.966-22.261,22.261-22.261h122.435v-66.783
	c0-12.295,9.966-22.261,22.261-22.261h89.043V267.13c0-12.295,9.966-22.261,22.261-22.261h67.478v-66.783
	c0-12.295,9.966-22.261,22.261-22.261h43.826C502.034,155.826,512,165.792,512,178.087z M66.783,211.478
	c0,24.588,19.933,44.522,44.522,44.522s44.522-19.933,44.522-44.522s-19.933-44.522-44.522-44.522S66.783,186.89,66.783,211.478z"/>
<path style="fill:#FFBC00;" d="M230.029,111.304c24.588,0,44.522,19.933,44.522,44.522s-19.933,44.522-44.522,44.522
	s-44.522-19.934-44.522-44.522S205.44,111.304,230.029,111.304z M489.739,155.826h-43.826c-12.295,0-22.261,9.966-22.261,22.261
	v66.783h-67.478c-12.295,0-22.261,9.966-22.261,22.261v66.783H244.87c-12.295,0-22.261,9.966-22.261,22.261v66.783H512v-244.87
	C512,165.792,502.034,155.826,489.739,155.826z"/>
<path style="fill:#73A4BC;" d="M348.753,55.652c24.588,0,44.522,19.933,44.522,44.522s-19.934,44.522-44.522,44.522
	c-24.588,0-44.522-19.933-44.522-44.522S324.165,55.652,348.753,55.652z M489.739,155.826h-43.826
	c-12.295,0-22.261,9.966-22.261,22.261v66.783h-67.478c-12.295,0-22.261,9.966-22.261,22.261v66.783H512V178.087
	C512,165.792,502.034,155.826,489.739,155.826z"/>
<path style="fill:#92B703;" d="M467.478,0C492.066,0,512,19.933,512,44.522s-19.933,44.522-44.522,44.522
	s-44.522-19.933-44.522-44.522S442.89,0,467.478,0z M489.739,155.826h-43.826c-12.295,0-22.261,9.966-22.261,22.261v66.783H512
	v-66.783C512,165.792,502.034,155.826,489.739,155.826z"/>
</svg>