<!DOCTYPE svg PUBLIC "-//W3C//DTD SVG 1.1//EN" "http://www.w3.org/Graphics/SVG/1.1/DTD/svg11.dtd">
<!-- Uploaded to: SVG Repo, www.svgrepo.com, Transformed by: SVG Repo Mixer Tools -->
<svg fill="#000000" width="800px" height="800px" viewBox="0 0 24 24" id="sign-out" data-name="Flat Color" xmlns="http://www.w3.org/2000/svg" class="icon flat-color">
<g id="SVGRepo_bgCarrier" stroke-width="0"/>
<g id="SVGRepo_tracerCarrier" stroke-linecap="round" stroke-linejoin="round"/>
<g id="SVGRepo_iconCarrier">
<path id="secondary" d="M7,21H4a2,2,0,0,1-2-2V5A2,2,0,0,1,4,3H7A1,1,0,0,1,7,5H4V19H7a1,1,0,0,1,0,2Z" style="fill: #0ea5e9;"/>
<path id="primary" d="M21.52,10.7,16.73,5.11a2,2,0,0,0-2.82-.22l-1.52,1.3a2,2,0,0,0-.69,1.37A2,2,0,0,0,12.16,9H7a1,1,0,0,0-1,1v4a1,1,0,0,0,1,1h5.16a2,2,0,0,0-.46,1.44,2,2,0,0,0,.69,1.37l1.52,1.3h0a2,2,0,0,0,2.82-.22l4.79-5.59A2,2,0,0,0,21.52,10.7Z" style="fill: #2D3436;"/>
</g>
</svg>